<?xml version="1.0" encoding="UTF-8" standalone="no"?>
<!-- Created with Inkscape (http://www.inkscape.org/) -->

<svg
   xmlns:dc="http://purl.org/dc/elements/1.1/"
   xmlns:cc="http://creativecommons.org/ns#"
   xmlns:rdf="http://www.w3.org/1999/02/22-rdf-syntax-ns#"
   xmlns:svg="http://www.w3.org/2000/svg"
   xmlns="http://www.w3.org/2000/svg"
   xmlns:xlink="http://www.w3.org/1999/xlink"
   xmlns:sodipodi="http://sodipodi.sourceforge.net/DTD/sodipodi-0.dtd"
   xmlns:inkscape="http://www.inkscape.org/namespaces/inkscape"
   width="512"
   height="512"
   id="svg3892"
   version="1.1"
   inkscape:version="0.48.4 r9939"
   sodipodi:docname="sweetpi-logo-app-icon2.svg"
   inkscape:export-filename="/home/h3llfire/Projektesammlung/2013_sweetpi.de (web)/logo/sweetpi-logo-app-icon96.png"
   inkscape:export-xdpi="16.875"
   inkscape:export-ydpi="16.875">
  <defs
     id="defs3894">
    <linearGradient
       id="linearGradient3904">
      <stop
         style="stop-color:#898989;stop-opacity:1;"
         offset="0"
         id="stop3906" />
      <stop
         style="stop-color:#c9c9c9;stop-opacity:0;"
         offset="1"
         id="stop3908" />
    </linearGradient>
    <linearGradient
       id="linearGradient3884">
      <stop
         style="stop-color:#f2f2f2;stop-opacity:1;"
         offset="0"
         id="stop3886" />
      <stop
         style="stop-color:#e5e5e5;stop-opacity:1;"
         offset="1"
         id="stop3888" />
    </linearGradient>
    <linearGradient
       inkscape:collect="always"
       xlink:href="#linearGradient3904"
       id="linearGradient3914"
       x1="228.29448"
       y1="466.22116"
       x2="440.51318"
       y2="466.22116"
       gradientUnits="userSpaceOnUse"
       gradientTransform="matrix(1.3931971,0,0,1.3931971,-282.11138,163.57523)" />
  </defs>
  <sodipodi:namedview
     id="base"
     pagecolor="#000000"
     bordercolor="#666666"
     borderopacity="1.0"
     inkscape:pageopacity="0"
     inkscape:pageshadow="2"
     inkscape:zoom="0.7"
     inkscape:cx="465.03701"
     inkscape:cy="35.899759"
     inkscape:document-units="px"
     inkscape:current-layer="layer1"
     showgrid="false"
     inkscape:window-width="1680"
     inkscape:window-height="1000"
     inkscape:window-x="0"
     inkscape:window-y="25"
     inkscape:window-maximized="1" />
  <metadata
     id="metadata3897">
    <rdf:RDF>
      <cc:Work
         rdf:about="">
        <dc:format>image/svg+xml</dc:format>
        <dc:type
           rdf:resource="http://purl.org/dc/dcmitype/StillImage" />
        <dc:title></dc:title>
      </cc:Work>
    </rdf:RDF>
  </metadata>
  <g
     inkscape:label="Layer 1"
     inkscape:groupmode="layer"
     id="layer1"
     transform="translate(0,-540.36218)">
    <path
       style="fill:url(#linearGradient3914);fill-opacity:1;stroke:none"
       d="M 56.354282,748.02366 187.94072,611.51153 330.78591,738.17227 331.6103,1013.0161 35.947832,1014.7149 z"
       id="path3902"
       inkscape:connector-curvature="0"
       sodipodi:nodetypes="cccccc" />
    <path
       style="fill:#2e6eff;fill-opacity:1;stroke:#251dca;stroke-width:4.31891108;stroke-linecap:square;stroke-linejoin:bevel;stroke-miterlimit:11;stroke-opacity:1;stroke-dasharray:none"
       d="m 184.58689,588.38078 -148.288419,151.24897 0,274.67755 183.510189,0 c 4.68888,6.1992 12.09062,10.2313 20.46258,10.2313 14.18487,0 25.68708,-11.5022 25.68708,-25.68712 0,-14.18487 -11.50221,-25.68706 -25.68708,-25.68706 -7.62414,0 -14.45256,3.34494 -19.15646,8.6204 l -154.906108,0 0,-227.09113 118.987748,-125.08297 117.42039,125.08297 0,44.97415 28.25578,0 0,-60.03809 -58.55781,-60.56054 0.0871,0 0,-62.65033 -30.99864,0 0,30.69388 -56.81632,-58.73198 z m 117.55101,227.7442 0,20.41905 29.2136,0 0,-20.41905 -29.2136,0 z m -0.0436,35.2653 0,20.41905 29.2136,0 0,-20.41905 -29.2136,0 z m 0,35.48299 0,20.41904 29.2136,0 0,-20.41904 -29.2136,0 z m -48.28299,0.43537 -17.98094,24.33741 139.36325,103.00955 0,0.1741 0.21768,0 0.17415,0.1306 0.0871,-0.1306 121.99183,0 0,-30.25849 -112.32652,0 -131.52652,-97.26257 z"
       id="rect3900"
       inkscape:connector-curvature="0" />
    <path
       style="fill:none;stroke:#000000;stroke-width:1.39319718px;stroke-linecap:butt;stroke-linejoin:miter;stroke-opacity:1"
       d="M 363.85842,1017.5296 z"
       id="path3894"
       inkscape:connector-curvature="0" />
  </g>
</svg>
